<?xml version="1.0" encoding="utf-8"?>
<!-- Generator: Adobe Illustrator 22.0.1, SVG Export Plug-In . SVG Version: 6.00 Build 0)  -->
<svg version="1.1" id="Capa_1" xmlns="http://www.w3.org/2000/svg" xmlns:xlink="http://www.w3.org/1999/xlink" x="0px" y="0px"
	 viewBox="0 0 482.9 482.9" style="enable-background:new 0 0 482.9 482.9;" xml:space="preserve">
<style type="text/css">
	.st0{fill:#374355;}
</style>
<g>
	<g>
		<path class="st0" d="M240.3,254.2c0.3,0,0.7,0,1.1,0c0.1,0,0.3,0,0.4,0c0.2,0,0.5,0,0.7,0c20-0.3,36.1-7.4,48.1-20.8
			c26.2-29.6,21.9-80.3,21.4-85.1c-1.7-36.3-18.9-53.7-33.1-61.8c-10.6-6.1-22.9-9.3-36.7-9.6h-0.5c-0.1,0-0.2,0-0.3,0H241
			c-7.6,0-22.4,1.2-36.7,9.3c-14.3,8.1-31.8,25.5-33.5,62.1c-0.5,4.8-4.8,55.6,21.4,85.1C204.1,246.9,220.3,253.9,240.3,254.2z
			 M189.1,150c0-0.2,0.1-0.4,0.1-0.5c2.2-48.9,36.9-54.1,51.8-54.1h0.3c0.1,0,0.3,0,0.5,0c18.4,0.4,49.7,7.9,51.8,54.1
			c0,0.2,0,0.4,0.1,0.5c0.1,0.5,4.8,46.8-16.8,71.2c-8.6,9.7-20,14.5-35.1,14.6c-0.1,0-0.2,0-0.3,0l0,0c-0.1,0-0.2,0-0.3,0
			c-15-0.1-26.5-4.9-35-14.6C184.4,197,189,150.4,189.1,150z"/>
		<path class="st0" d="M381.4,338.3c0-0.1,0-0.1,0-0.2c0-0.5-0.1-1.1-0.1-1.7c-0.4-13.5-1.3-45.1-30.9-55.1
			c-0.2-0.1-0.5-0.1-0.7-0.2c-30.7-7.8-56.3-25.6-56.6-25.8c-4.2-2.9-9.9-1.9-12.8,2.2c-2.9,4.2-1.9,9.9,2.2,12.8
			c1.2,0.8,28.3,19.7,62.2,28.4c15.9,5.7,17.7,22.6,18.1,38.2c0,0.6,0,1.2,0.1,1.7c0.1,6.1-0.3,15.6-1.4,21.1
			c-11,6.3-54.3,27.9-120.2,27.9c-65.6,0-109.1-21.7-120.2-28c-1.1-5.5-1.6-14.9-1.4-21.1c0-0.5,0.1-1.1,0.1-1.7
			c0.5-15.5,2.2-32.5,18.1-38.2c33.9-8.7,61.1-27.7,62.2-28.4c4.2-2.9,5.2-8.7,2.2-12.8c-2.9-4.2-8.7-5.2-12.8-2.2
			c-0.3,0.2-25.7,17.9-56.6,25.8c-0.3,0.1-0.5,0.1-0.7,0.2c-29.6,10.2-30.5,41.7-30.9,55.1c0,0.6,0,1.2-0.1,1.7c0,0.1,0,0.1,0,0.2
			c-0.1,3.5-0.1,21.7,3.5,30.9c0.7,1.8,1.9,3.3,3.5,4.3c2,1.4,51.1,32.6,133.1,32.6s131-31.3,133.1-32.6c1.6-1,2.9-2.5,3.5-4.3
			C381.6,360.1,381.5,341.9,381.4,338.3z"/>
	</g>
</g>
</svg>
