<svg xmlns="http://www.w3.org/2000/svg" width="142" height="44" viewBox="0 0 142 44">
    <defs>
        <linearGradient id="a" x1="0%" y1="100%" y2="0%">
            <stop offset="0%" stop-color="#FF7A00"/>
            <stop offset="100%" stop-color="#F00"/>
        </linearGradient>
    </defs>
    <g fill="none" fill-rule="evenodd">
        <path fill="#FFF" d="M60.515 25.995l-1.654-8.102-1.606 8.102h3.26zm2.493 4.34a.75.75 0 0 1-.12.61.825.825 0 0 1-.504.348h-.143a.775.775 0 0 1-.491-.18.713.713 0 0 1-.276-.444l-.648-3.115h-3.883l-.623 3.115a.718.718 0 0 1-.275.444.812.812 0 0 1-.516.18h-.144a.78.78 0 0 1-.491-.348.776.776 0 0 1-.108-.61l3.332-16.565a.291.291 0 0 1 .047-.12v-.048a.364.364 0 0 1 .12-.167v-.048h.025v-.025h.023v-.023h.024v-.024h.025a.364.364 0 0 1 .095-.072c.032-.016.072-.032.12-.048v-.024h.024a.238.238 0 0 1 .108-.024c.04 0 .076-.008.108-.024h.096a.231.231 0 0 0 .107.024c.04 0 .076.008.109.024h.023v.024a.796.796 0 0 1 .144.048c.032.016.063.04.096.072h.024v.024h.024v.023h.024v.025l.024.048c.016.032.036.06.06.083a.358.358 0 0 1 .06.084v.048c.015.017.024.056.024.12l3.356 16.564zM69.288 31.173c-1.119 0-2.061-.32-2.829-.959-.304-.255-.603-.643-.898-1.162-.297-.52-.444-1.227-.444-2.122 0-.24.084-.439.252-.6a.851.851 0 0 1 .61-.24c.225 0 .417.081.576.24.16.161.24.36.24.6 0 .528.076.96.228 1.294.151.336.347.596.587.78.24.183.507.31.803.383.296.072.587.108.875.108.16 0 .387-.02.683-.06.296-.04.587-.148.875-.324a2.38 2.38 0 0 0 .755-.767c.216-.335.324-.807.324-1.414 0-.59-.084-1.11-.252-1.558a4.073 4.073 0 0 0-.695-1.199 6.57 6.57 0 0 0-1.02-.97c-.382-.296-.79-.595-1.221-.9a33.25 33.25 0 0 1-1.163-.862 7.479 7.479 0 0 1-1.066-1.007 4.65 4.65 0 0 1-1.139-3.428c.007-.191.036-.415.083-.671.144-.815.464-1.494.96-2.038.718-.75 1.685-1.126 2.9-1.126 1.23 0 2.181.376 2.852 1.126.24.272.432.584.576.935.143.352.23.736.263 1.151.032.288.044.532.037.731-.009.2-.021.316-.037.348a3.908 3.908 0 0 1-.167.551c-.08.128-.177.24-.288.336-.112.095-.28.128-.503.095-.225-.031-.384-.115-.48-.251a1.166 1.166 0 0 1-.192-.42 1.282 1.282 0 0 1-.024-.551 2.15 2.15 0 0 0 0-.647 5.62 5.62 0 0 0-.143-.587 1.66 1.66 0 0 0-.313-.588c-.319-.384-.846-.575-1.581-.575-.736 0-1.286.208-1.654.623a1.74 1.74 0 0 0-.395.6 3.153 3.153 0 0 0-.18.598c-.049.225-.064.44-.049.648v.072c0 .399.064.76.193 1.078.127.32.307.616.539.887.231.273.512.54.839.803.327.264.699.548 1.115.851.463.304.914.628 1.354.971.439.344.85.748 1.235 1.21.863 1.056 1.294 2.31 1.294 3.764 0 .735-.124 1.37-.372 1.906a3.76 3.76 0 0 1-.983 1.318c-.407.344-.87.6-1.39.768a5.087 5.087 0 0 1-1.57.25M86.055 30.322a.852.852 0 0 1-.42.492.854.854 0 0 1-.827-.024.868.868 0 0 1-.323-.336l-4.1-8.126-1.773 2.9v4.914c0 .24-.083.44-.252.6a.85.85 0 0 1-.61.239.82.82 0 0 1-.588-.24.791.791 0 0 1-.252-.599V14.058c0-.24.084-.443.252-.612a.803.803 0 0 1 .587-.25c.24 0 .444.083.611.25a.832.832 0 0 1 .252.612v7.934l5.13-8.341a.843.843 0 0 1 .527-.396.82.82 0 0 1 .648.108.868.868 0 0 1 .371.527c.056.224.02.44-.108.647l-3.763 6.113 4.579 9.037c.11.208.131.419.06.635M93.275 31.293c-1.214 0-2.157-.384-2.828-1.15-.544-.56-.887-1.32-1.031-2.278a9.23 9.23 0 0 1-.06-.719 2.137 2.137 0 0 1 .012-.431v-9.397c0-.736.116-1.374.348-1.918.231-.543.53-.99.899-1.342a3.51 3.51 0 0 1 1.246-.78 4.112 4.112 0 0 1 1.414-.251c1.023 0 1.894.32 2.613.959.303.272.596.675.876 1.21.279.536.419 1.25.419 2.146 0 .224-.084.42-.252.587a.801.801 0 0 1-.587.252.832.832 0 0 1-.612-.252.803.803 0 0 1-.251-.587c0-.608-.092-1.087-.276-1.439-.184-.351-.395-.614-.635-.79a1.817 1.817 0 0 0-.731-.336 3.218 3.218 0 0 0-.564-.072c-.575 0-1.07.183-1.485.551-.496.464-.744 1.151-.744 2.062v9.744c0 .151.016.34.048.563.032.224.092.464.18.719.088.256.228.48.42.671.351.384.879.576 1.581.576.752 0 1.303-.2 1.655-.6a2.11 2.11 0 0 0 .407-.647c.096-.24.164-.463.203-.67.04-.209.06-.456.06-.744v-3.068h-1.678a.832.832 0 0 1-.61-.252.83.83 0 0 1-.253-.611c0-.224.084-.42.252-.587a.832.832 0 0 1 .611-.252h3.356v4.698c.017.064.02.2.013.408-.01.207-.037.447-.084.719-.176.878-.52 1.598-1.03 2.157-.72.767-1.688 1.15-2.902 1.15M105.812 25.995l-1.654-8.102-1.606 8.102h3.26zm2.493 4.34a.756.756 0 0 1-.12.61.828.828 0 0 1-.503.348h-.144a.777.777 0 0 1-.492-.18.712.712 0 0 1-.275-.444l-.648-3.115h-3.883l-.623 3.115a.717.717 0 0 1-.275.444.813.813 0 0 1-.516.18h-.144a.778.778 0 0 1-.491-.348.779.779 0 0 1-.108-.61l3.332-16.565a.3.3 0 0 1 .048-.12v-.048a.354.354 0 0 1 .12-.167v-.048h.024v-.025h.024v-.023h.023v-.024h.025a.352.352 0 0 1 .095-.072c.032-.016.072-.032.12-.048v-.024h.024a.243.243 0 0 1 .108-.024c.04 0 .075-.008.108-.024h.096a.234.234 0 0 0 .108.024c.04 0 .075.008.107.024h.025v.024a.796.796 0 0 1 .144.048c.03.016.063.04.095.072h.025v.024h.023v.023h.024v.025l.024.048c.016.032.036.06.06.083a.358.358 0 0 1 .06.084v.048c.016.017.024.056.024.12l3.356 16.564zM115.016 31.317c-1.198 0-2.142-.384-2.828-1.15-.543-.608-.88-1.367-1.007-2.278a4.582 4.582 0 0 1-.072-.743V14.08c0-.223.084-.42.252-.587a.807.807 0 0 1 .587-.251c.24 0 .443.084.611.251a.805.805 0 0 1 .252.587V26.81l-.012.263c-.008.16.008.352.048.576.04.224.104.463.191.719.088.256.22.48.396.672.352.383.879.575 1.582.575.735 0 1.295-.2 1.679-.6.175-.192.311-.403.407-.635.096-.23.16-.46.192-.683.048-.24.064-.487.048-.743V14.106c0-.24.084-.444.251-.612a.835.835 0 0 1 .611-.251c.224 0 .42.084.588.251a.83.83 0 0 1 .251.612v12.776c0 .064-.004.196-.011.396-.009.2-.037.435-.085.707-.143.878-.487 1.606-1.03 2.181-.704.767-1.67 1.15-2.9 1.15M126.402 31.293c-1.214 0-2.157-.384-2.828-1.15-.543-.56-.887-1.32-1.03-2.278a9.23 9.23 0 0 1-.06-.719 2.084 2.084 0 0 1 .012-.431v-9.397c0-.736.115-1.374.347-1.918.232-.543.531-.99.899-1.342a3.51 3.51 0 0 1 1.247-.78 4.112 4.112 0 0 1 1.413-.251c1.023 0 1.894.32 2.613.959.303.272.596.675.875 1.21.28.536.42 1.25.42 2.146 0 .224-.084.42-.252.587a.803.803 0 0 1-.587.252.832.832 0 0 1-.612-.252.804.804 0 0 1-.252-.587c0-.608-.091-1.087-.275-1.439-.184-.351-.395-.614-.635-.79a1.817 1.817 0 0 0-.731-.336 3.226 3.226 0 0 0-.564-.072c-.575 0-1.07.183-1.485.551-.496.464-.744 1.151-.744 2.062v9.744a4.097 4.097 0 0 0 .228 1.282c.088.256.227.48.42.671.35.384.878.576 1.581.576.752 0 1.303-.2 1.655-.6a2.1 2.1 0 0 0 .407-.647c.096-.24.163-.463.204-.67.04-.209.06-.456.06-.744v-3.068h-1.678a.832.832 0 0 1-.612-.252.83.83 0 0 1-.251-.611c0-.224.083-.42.251-.587a.832.832 0 0 1 .612-.252h3.356v4.698c.016.064.02.2.012.408a5.557 5.557 0 0 1-.084.719c-.176.878-.52 1.598-1.031 2.157-.72.767-1.686 1.15-2.9 1.15M141.684 29.627a.833.833 0 0 1 .251.611c0 .224-.084.42-.251.587a.835.835 0 0 1-.612.252h-6.351a.835.835 0 0 1-.612-.252.805.805 0 0 1-.251-.587V14.082c0-.224.083-.42.25-.587a.832.832 0 0 1 .613-.252h6.351c.24 0 .444.084.612.252a.805.805 0 0 1 .251.587c0 .24-.084.443-.251.612a.837.837 0 0 1-.612.25h-5.513v7.36h4.147c.24 0 .44.084.6.251.16.168.239.372.239.611 0 .225-.08.42-.24.588a.795.795 0 0 1-.599.252h-4.147v5.37h5.513c.24 0 .444.083.612.25"/>
        <path fill="url(#a)" d="M0 21.869c0 12.078 9.791 21.87 21.869 21.87s21.868-9.792 21.868-21.87C43.737 9.79 33.947 0 21.87 0S0 9.79 0 21.869"/>
        <path fill="#FFF" d="M10.914 17.874a.793.793 0 0 1-.39-1.483L21.26 10.34a.79.79 0 0 1 .767-.006L33.2 16.37c.385.208.528.689.32 1.074a.79.79 0 0 1-1.074.321l-10.788-5.83-10.356 5.838a.81.81 0 0 1-.389.101M31.077 29.843a.794.794 0 0 1-.792-.794v-4.793H22.09a.793.793 0 1 1 0-1.585h8.987c.44 0 .794.355.794.792v5.586a.794.794 0 0 1-.794.794M13.528 29.843a.794.794 0 0 1-.792-.794v-9.797a.793.793 0 1 1 1.586 0v9.797a.795.795 0 0 1-.794.794"/>
        <path fill="#FFF" d="M22.368 33.5a13.268 13.268 0 0 1-9.24-3.723.793.793 0 0 1 1.1-1.142 11.688 11.688 0 0 0 8.14 3.28c2.99 0 5.84-1.126 8.021-3.168a.793.793 0 0 1 1.085 1.158 13.282 13.282 0 0 1-9.106 3.595"/>
    </g>
</svg>
