<svg xmlns="http://www.w3.org/2000/svg" width="50" height="54" viewBox="0 0 50 54">
    <g fill="none" fill-rule="evenodd" stroke="#0082D5" stroke-width="2">
        <path stroke-linecap="round" d="M35.44 52.638H20.77"/>
        <path d="M20.77 9.893v-5.41h14.67v10.4M20.77 21.937v-7.475"/>
        <path stroke-linecap="round" d="M20.363 4.396h15.484V1.774H20.363z"/>
        <path d="M26.095 26.41v26.228H11.833V26.41"/>
        <path stroke-linecap="round" d="M11.426 52.638h15.077v-2.577H11.426zM11.426 26.582h15.077v-2.534H11.426zM11.172 24.048l7.666-2.467 7.665 2.467z"/>
        <path d="M13.39 28.719h1.16M15.864 28.719h1.16M18.34 28.719h1.16M20.815 28.719h1.16M23.29 28.719h1.16M13.39 31.227h1.16M15.864 31.227h1.16M18.34 31.227h1.16M20.815 31.227h1.16M23.29 31.227h1.16M13.39 33.733h1.16M15.864 33.733h1.16M18.34 33.733h1.16M20.815 33.733h1.16M23.29 33.733h1.16M13.39 36.24h1.16M15.864 36.24h1.16M18.34 36.24h1.16M20.815 36.24h1.16M23.29 36.24h1.16M13.39 38.748h1.16M15.864 38.748h1.16M18.34 38.748h1.16M20.815 38.748h1.16M23.29 38.748h1.16M13.39 41.255h1.16M15.864 41.255h1.16M18.34 41.255h1.16M20.815 41.255h1.16M23.29 41.255h1.16M13.39 43.762h1.16M15.864 43.762h1.16M18.34 43.762h1.16M20.815 43.762h1.16M23.29 43.762h1.16M13.39 46.269h1.16M15.864 46.269h1.16M18.34 46.269h1.16M20.815 46.269h1.16M23.29 46.269h1.16"/>
        <path stroke-linecap="round" d="M33.81 50.126h14.262v-32.62H33.81zM33.403 52.638h15.076v-2.512H33.403zM33.403 17.506h15.076v-2.663H33.403z"/>
        <path d="M36.037 20.525h9.936M36.037 23.622h9.936M36.037 26.719h9.936M36.037 29.816h9.936M36.037 32.913h9.936M36.037 36.01h9.936M36.037 39.107h9.936M36.037 42.204h9.936M36.037 45.301h9.936M5.067 18.959h5.162M3.035 18.959H.937"/>
        <path stroke-linecap="round" d="M26.55 14.994a1.615 1.615 0 0 0-1.927-1.813 3.478 3.478 0 0 0-1.398-1.528 3.46 3.46 0 0 0-3.122-1.97 3.46 3.46 0 0 0-2.907 1.585 2.536 2.536 0 0 0-4.012.473 3.461 3.461 0 0 0-5.67.5 3.466 3.466 0 0 0-3.042 2.753H26.55z"/>
    </g>
</svg>
