<svg xmlns="http://www.w3.org/2000/svg" width="50" height="51" viewBox="0 0 50 51">
    <g fill="#0082D5" fill-rule="nonzero">
        <path d="M11.273 50.148H5.15V25.534h2v22.614h2.124V30.202h14.712v17.946H42.88V25.534h2v24.614H21.985V32.202H11.273zM11.273 16.136a1 1 0 1 1-2 0V6.897a1 1 0 0 1 1-1h5.208a1 1 0 0 1 1 1v3.739a1 1 0 1 1-2 0V7.897h-3.208v8.239z"/>
        <path d="M24.977 41.887V30.202H40.81v11.685H24.977zm13.834-2v-7.685H26.977v7.685H38.81zM25.014 7.696L4.262 28.45a1 1 0 0 1-1.415 0l-2.31-2.31a1 1 0 0 1 0-1.413L24.308.954a1 1 0 0 1 1.414 0l23.77 23.772a1 1 0 0 1 0 1.414l-2.31 2.31a1 1 0 0 1-1.414 0L25.014 7.695zm-.707-2.121a1 1 0 0 1 1.414 0l20.753 20.753.896-.895L25.014 3.076 2.66 25.433l.895.895L24.307 5.575zM23.18 47.157v-2h20.792v2zM10.365 45.157v2H6.239v-2z"/>
        <path d="M31.709 31.28h2v9.563h-2zM20.827 40.67v2H18.21v-2zM25.014 7.71L6.864 26.235l-1.43-1.4 19.58-19.98 19.581 19.98-1.428 1.4z"/>
    </g>
</svg>
