<svg xmlns="http://www.w3.org/2000/svg" width="50" height="47" viewBox="0 0 50 47">
    <g fill="none" fill-rule="evenodd" stroke="#CAD3DF" stroke-width="2">
        <path d="M36.667 12.832c0 6.393-5.178 11.58-11.569 11.58-6.389 0-11.567-5.187-11.567-11.58 0-6.391 5.178-11.576 11.567-11.576 6.391 0 11.57 5.185 11.57 11.576z"/>
        <path stroke-linejoin="round" d="M33.93 12.832c0 4.884-3.952 8.84-8.832 8.84-4.877 0-8.832-3.956-8.832-8.84 0-4.88 3.955-8.837 8.832-8.837 4.88 0 8.833 3.957 8.833 8.837z"/>
        <path d="M27.687 9.766v-.6c0-1.043-.843-1.889-1.884-1.889H24.29a1.887 1.887 0 0 0-1.886 1.89v1.283c0 .597.46 1.087 1.066 1.473l2.875 1.101M22.403 15.311v.601c0 1.043.844 1.887 1.885 1.887h1.515c1.04 0 1.885-.844 1.885-1.887v-1.286c0-.595-.491-1.117-1.1-1.502l-2.742-1.057M25.16 5.608V19.54M9.478 26.16v-6.51c-.272-1.663-1.454-3.249-3.105-3.25h-.995c-.043.001-.083.006-.125.009"/>
        <path d="M12.28 41.582L1.389 24.672l-.126-11.724c.042-.003.082-.008.126-.008l.994-.001c1.652.001 2.833 1.587 3.104 3.25v6.51l2.43 2.57 6.957 6.963.632-.638-4.323-4.306c-1.073-1.138-.713-3.242.425-4.317l.305-.252 7.697 7.702.36 5.597v5.16"/>
        <path d="M23.135 46.907V41.47H7.655v5.438M40.722 26.16v-6.51c.27-1.663 1.452-3.249 3.104-3.25h.995c.043.001.083.006.125.009"/>
        <path d="M37.919 41.582l10.892-16.91.125-11.724c-.042-.003-.082-.008-.125-.008l-.995-.001c-1.652.001-2.834 1.587-3.104 3.25v6.51l-2.43 2.57-6.956 6.963-.633-.638 4.323-4.306c1.074-1.138.713-3.242-.425-4.317l-.305-.252-7.696 7.702-.36 5.597v5.16"/>
        <path d="M27.065 46.907V41.47h15.48v5.438"/>
    </g>
</svg>
