<svg xmlns="http://www.w3.org/2000/svg" xmlns:xlink="http://www.w3.org/1999/xlink" width="49" height="53" viewBox="0 0 49 53">
    <defs>
        <path id="a" d="M1 52.13h47.66V0H1z"/>
    </defs>
    <g fill="none" fill-rule="evenodd" transform="translate(.063 .396)">
        <path fill="#ADB9CA" fill-rule="nonzero" d="M14.162 32.551l.242.282v9.372l-.242.281a7.602 7.602 0 0 1-5.773 2.655 7.622 7.622 0 1 1 0-15.244 7.6 7.6 0 0 1 5.773 2.654zm-5.773-.654a5.621 5.621 0 1 0 0 11.244c1.533 0 2.966-.621 4.015-1.696v-7.853a5.594 5.594 0 0 0-4.015-1.695zM46.481 50.348V12.806h2v39.542h-35.1v-2z"/>
        <path fill="#ADB9CA" fill-rule="nonzero" d="M14.381 48.523h-2V12.806h2z"/>
        <mask id="b" fill="#fff">
            <use xlink:href="#a"/>
        </mask>
        <path fill="#ADB9CA" fill-rule="nonzero" d="M35.658 50.727V35.082h9.223v15.645h-9.223zm7.223-2V37.082h-5.223v11.645h5.223zM11.98 33.87v-4.808h36.915v4.809H11.98zm2-2h32.915v-.808H13.98v.809zM43.273-.234l5.054 11.632H12.266L17.318-.234h25.955zm-24.644 2l-3.314 7.632h29.962l-3.316-7.632H18.629z" mask="url(#b)"/>
        <path fill="#ADB9CA" fill-rule="nonzero" d="M11.98 14.316V9.398h36.915v4.918H11.98zm2-2h32.915v-.918H13.98v.918zM20.759 52.217l.097-.021a5.5 5.5 0 0 0 .3-.28l-.397.3zm.428.132H4.955l.246-1.2c.247-1.207 1.16-2.082 2.344-2.367a3.215 3.215 0 0 1 4.156-.76 2.629 2.629 0 0 1 2.477-.25 3.219 3.219 0 0 1 4.79.846c.269.193.506.425.704.689.959.174 1.681 1.04 1.681 2.042l-.001.065c0 .032 0 .034-.05.25l-.115.685zm.14-.834l-.006.04.007-.04zm-.986-1.14c-.057.007-.121.02-.196.034l.196.051v-.086zm-2.635-.194l-.265-.155-.133-.276a1.221 1.221 0 0 0-2.125-.14l-.476.74h3.224a1.247 1.247 0 0 0-.225-.17zm-4.081-.417a.625.625 0 0 0-.454-.192.624.624 0 0 0-.54.312l-.275.465h1.835l-.566-.585zm-2.626.251a1.218 1.218 0 0 0-2 .175l-.09.16h2.368L11 50.014zm8.322 1.258h-.003.003zm.073-.194l.018-.054.08-.17.566-.428-.223.049c-.351.315-.351.315-.41.468-.06.176-.06.176-.07.24l.017.002.022-.107zm.751-.67l-.047-.012-.04.03.087-.018zm1.193.787c.01.052.01.052-.04-.156-.01-.03-.01-.03-.086-.187l-.078-.098c.223.41.222.413.204.441zM37.46 43.904v-2h1.204v2z" mask="url(#b)"/>
        <path fill="#ADB9CA" fill-rule="nonzero" d="M7.187 34.509h2v14.848h-2z" mask="url(#b)"/>
        <path fill="#ADB9CA" fill-rule="nonzero" d="M8.894 42.84L7.48 41.427l3.21-3.21 1.415 1.415zM8.894 39.822L7.48 41.236l-3.21-3.21 1.413-1.415zM15.592 28.607V15.402h8.02v13.205h-8.02zm6.02-2v-9.205h-4.02v9.205h4.02zM26.35 28.607V15.402h8.02v13.205h-8.02zm6.02-2v-9.205h-4.02v9.205h4.02zM37.108 28.607V15.402h8.019v13.205h-8.02zm6.019-2v-9.205h-4.02v9.205h4.02zM15.592 48.287V35.082h8.02v13.205h-8.02zm6.02-2v-9.205h-4.02v9.205h4.02zM26.35 48.287V35.082h8.02v13.205h-8.02zm6.02-2v-9.205h-4.02v9.205h4.02z" mask="url(#b)"/>
    </g>
</svg>
