<svg xmlns="http://www.w3.org/2000/svg" width="49" height="53" viewBox="0 0 49 53">
    <g fill="#0082D5" fill-rule="nonzero">
        <path d="M14.225 32.947l.242.282V42.6l-.243.281a7.602 7.602 0 0 1-5.772 2.655 7.622 7.622 0 1 1 0-15.244 7.6 7.6 0 0 1 5.773 2.654zm-5.773-.654a5.621 5.621 0 1 0 0 11.244c1.533 0 2.965-.621 4.015-1.696v-7.853a5.594 5.594 0 0 0-4.015-1.695zM46.544 50.744V13.2h2v39.543h-35.1v-2z"/>
        <path d="M14.444 48.92h-2V13.201h2zM35.72 51.123V35.478h9.223v15.645h-9.222zm7.223-2V37.478h-5.222v11.645h5.222z"/>
        <path d="M12.043 34.267v-4.809h36.914v4.809H12.043zm2-2h32.914v-.809H14.043v.809zM43.335.162l5.054 11.632H12.33L17.38.162h25.955zm-24.643 2l-3.314 7.632H45.34l-3.316-7.632H18.692z"/>
        <path d="M12.043 14.712V9.794h36.914v4.918H12.043zm2-2h32.914v-.918H14.043v.918zM20.821 52.613l.098-.022a5.5 5.5 0 0 0 .3-.278l-.398.3zm.429.132H5.017l.246-1.2c.247-1.207 1.16-2.082 2.345-2.367a3.215 3.215 0 0 1 4.156-.76 2.629 2.629 0 0 1 2.477-.25 3.219 3.219 0 0 1 4.79.846c.268.193.506.425.704.689.958.174 1.68 1.04 1.68 2.042v.065c0 .032 0 .034-.05.25l-.115.685zm.14-.834l-.006.04.006-.04zm-.986-1.14c-.057.007-.122.02-.196.034l.196.051v-.086zm-2.636-.194l-.264-.155-.133-.276a1.221 1.221 0 0 0-2.125-.14l-.477.74h3.225a1.247 1.247 0 0 0-.226-.17zm-4.08-.417a.625.625 0 0 0-.454-.192.624.624 0 0 0-.541.312l-.275.465h1.836l-.567-.585zm-2.626.25a1.218 1.218 0 0 0-2 .175l-.091.16h2.369l-.278-.334zm8.322 1.259h-.003.003zm.073-.195l.018-.053.08-.17.566-.428-.223.049c-.352.315-.352.315-.41.468-.06.176-.06.176-.07.24l.017.002.022-.108zm.75-.669l-.046-.012-.04.03.087-.018zm1.194.787c.01.051.01.051-.04-.157-.01-.03-.01-.03-.087-.186l-.077-.098c.223.41.222.412.204.44zM37.523 44.3v-2h1.204v2z"/>
        <path d="M7.25 34.905h2v14.848h-2z"/>
        <path d="M8.957 43.237l-1.414-1.415 3.21-3.21 1.414 1.415zM8.957 40.218l-1.414 1.414-3.211-3.21 1.414-1.415zM15.655 29.003V15.798h8.019v13.205h-8.02zm6.019-2v-9.205h-4.02v9.205h4.02zM26.413 29.003V15.798h8.019v13.205h-8.019zm6.019-2v-9.205h-4.019v9.205h4.019zM37.17 29.003V15.798h8.02v13.205h-8.02zm6.02-2v-9.205h-4.02v9.205h4.02zM15.655 48.683V35.478h8.019v13.205h-8.02zm6.019-2v-9.205h-4.02v9.205h4.02zM26.413 48.683V35.478h8.019v13.205h-8.019zm6.019-2v-9.205h-4.019v9.205h4.019z"/>
    </g>
</svg>
