<svg xmlns="http://www.w3.org/2000/svg" width="16" height="15" viewBox="0 0 16 15">
    <path fill="#FF9948" fill-rule="evenodd" d="M8 0c.19 0 .352.113.416.288L10.1 4.982a.43.43 0 0 0 .404.287l5.065.128c.19.005.348.12.407.297.06.176.002.359-.15.473l-4.026 3.036a.417.417 0 0 0-.154.462l1.443 4.782a.418.418 0 0 1-.164.47.442.442 0 0 1-.509.005L8.251 12.1a.443.443 0 0 0-.502 0l-4.166 2.822a.442.442 0 0 1-.509-.005.418.418 0 0 1-.164-.47l1.443-4.782a.417.417 0 0 0-.154-.462L.173 6.167a.416.416 0 0 1-.15-.473.431.431 0 0 1 .407-.297l5.065-.128a.43.43 0 0 0 .404-.287L7.584.288A.434.434 0 0 1 8 0z"/>
</svg>
