<svg xmlns="http://www.w3.org/2000/svg" width="76" height="48" viewBox="0 0 76 48">
    <g fill="#ADB9CA" fill-rule="evenodd">
        <path d="M56.372 45.936h7.274V33.834h-7.274v12.102zm-22.489.02h7.282V33.84h-7.282v12.117zm-22.428-.017h7.276V33.834h-7.276v12.105zM4.55 17.964c.256-.267.495-.508.724-.758 2.927-3.185 5.855-6.37 8.779-9.557.836-.912 1.232-.922 2.076-.007 3.105 3.37 6.207 6.741 9.308 10.114.76.827.997.826 1.763-.006 3.103-3.371 6.207-6.742 9.314-10.11.844-.915 1.232-.905 2.072.01 3.102 3.372 6.203 6.744 9.309 10.113.77.836.972.833 1.759-.022 3.122-3.392 6.238-6.79 9.363-10.18.738-.801 1.16-.81 1.896-.017 1.8 1.939 3.585 3.894 5.378 5.84 1.398 1.52 2.8 3.037 4.235 4.593l2.322-2.149L59.865 1.714c-.18.298-.27.52-.421.684-3.213 3.503-6.434 6.998-9.651 10.496-.83.901-1.255.902-2.082.003-3.177-3.457-6.359-6.91-9.526-10.377-.203-.223-.298-.545-.475-.883-.621.673-.968 1.047-1.313 1.423-2.986 3.247-5.97 6.496-8.958 9.74-.957 1.038-1.301 1.034-2.257-.006-3.004-3.269-6.005-6.54-9.01-9.807-.34-.369-.705-.713-1.11-1.12L2.23 15.838l2.32 2.127zm55.428-8.697c-.547.59-1.011 1.085-1.471 1.585-2.698 2.933-5.396 5.866-8.088 8.803-.341.372-.75.62-.747 1.3.042 8.055.027 16.11.027 24.164v.8h4.758v-1.59c0-3.671-.002-7.343.002-11.014.001-1.203.18-1.375 1.397-1.377 2.704-.003 5.408.002 8.112-.003 1.397-.003 1.6.179 1.602 1.544.005 3.814.002 7.628.002 11.442v1.003h4.657c.025-.148.053-.231.053-.315.004-8.282.008-16.564.002-24.847 0-.204-.058-.463-.19-.605-1.6-1.732-3.228-3.44-4.835-5.168-1.742-1.873-3.47-3.759-5.281-5.722zM25.322 45.955c.026-.213.052-.323.052-.434.003-8.253.005-16.506-.002-24.759 0-.206-.053-.467-.184-.608-3.277-3.557-6.568-7.1-9.859-10.645-.067-.073-.157-.126-.261-.207-.91.986-1.776 1.926-2.642 2.867-2.274 2.47-4.499 4.99-6.851 7.383-.655.667-.814 1.28-.811 2.124.021 7 .012 14.002.012 21.003v3.23h4.766v-1.178c0-3.814-.002-7.627.001-11.44.001-1.173.176-1.35 1.326-1.352 2.76-.004 5.521-.002 8.282-.001 1.277 0 1.495.212 1.497 1.471.003 3.9.004 7.798.005 11.697v.85h4.67zm6.643-.003v-1.455c0-3.729-.005-7.458.001-11.186.002-1.112.251-1.37 1.341-1.373 2.818-.008 5.636-.005 8.454.001 1.123.002 1.312.208 1.311 1.373V45.938h4.764v-.796c0-7.8-.013-15.598.022-23.397.004-.925-.213-1.573-.881-2.273-2.986-3.13-5.883-6.344-8.8-9.538-.205-.223-.328-.52-.508-.817-.907.982-1.598 1.737-2.296 2.486-2.656 2.851-5.318 5.697-7.96 8.562-.143.155-.174.46-.174.694-.007 8.083-.004 16.167-.003 24.25v.843h4.729zm-5.64-34.673l7.636-8.294L36.04.72c.872-.946 2.1-.967 2.966-.029 3.05 3.306 6.091 6.62 9.136 9.93.192.208.385.413.616.66l6.554-7.122c1.08-1.173 2.15-2.355 3.237-3.52a1.917 1.917 0 0 1 2.855.008c4.399 4.772 8.792 9.55 13.181 14.33.701.764.667 1.128-.1 1.86-.041.04-.083.078-.125.117-.743.703-1.767 1.281-2.15 2.144-.367.832-.07 1.957-.069 2.953v24.17c0 1.495-.122 1.617-1.593 1.617l-66.274.005c-1.097 0-1.355-.248-1.355-1.352-.003-8.91.005-17.82-.024-26.731-.001-.415-.236-.91-.52-1.226C1.79 17.88 1.1 17.32.448 16.725c-.566-.52-.602-1.045-.07-1.623C4.827 10.262 9.27 5.413 13.726.577c.758-.822 2.05-.752 2.856.123 2.874 3.12 5.742 6.244 8.613 9.366.345.376.695.747 1.128 1.213z"/>
        <path d="M34.301 25.976h6.487v-6.494H34.3v6.494zm8.401-3.24c0 1.335-.011 2.67.005 4.005.009.785-.354 1.148-1.132 1.146-2.7-.006-5.398-.01-8.097 0-.803.004-1.136-.42-1.138-1.16-.005-2.671 0-5.342.006-8.013.002-.753.354-1.149 1.148-1.145 2.67.01 5.341-.01 8.012.001.943.004 1.186.273 1.194 1.245.01 1.307.002 2.614.002 3.92zM11.749 26.086h6.503v-6.55H11.75v6.55zm8.418-3.277c0 1.336-.016 2.672.006 4.008.013.794-.373 1.162-1.128 1.164-2.701.008-5.402.006-8.103 0-.732-.001-1.092-.395-1.093-1.12-.001-2.73-.005-5.459 0-8.188.002-.739.397-1.066 1.133-1.063 2.672.01 5.344 0 8.017.009.881.003 1.16.293 1.166 1.181.009 1.336.002 2.673.002 4.009zM56.757 25.991h6.515V19.48h-6.515v6.511zm-1.918-3.267c0-1.335.017-2.671-.007-4.007-.013-.79.332-1.15 1.119-1.147 2.7.009 5.4.012 8.099-.002.806-.004 1.13.408 1.13 1.157.003 2.671.014 5.342-.006 8.014-.006.876-.308 1.139-1.218 1.141-2.643.01-5.285.01-7.928 0-.962-.004-1.183-.247-1.188-1.234-.006-1.307-.001-2.615-.001-3.922z"/>
    </g>
</svg>
